<svg width="19" height="19" viewBox="0 0 19 19" fill="none" xmlns="http://www.w3.org/2000/svg">
<path d="M17.5686 14.8068C17.2812 15.4706 16.9411 16.0816 16.5471 16.6434C16.0099 17.4092 15.5701 17.9393 15.2312 18.2337C14.7058 18.7169 14.1428 18.9644 13.54 18.9784C13.1072 18.9784 12.5853 18.8553 11.9778 18.6055C11.3683 18.3568 10.8082 18.2337 10.296 18.2337C9.75886 18.2337 9.18278 18.3568 8.56659 18.6055C7.94946 18.8553 7.45231 18.9855 7.0722 18.9984C6.49413 19.023 5.91793 18.7685 5.34279 18.2337C4.9757 17.9135 4.51655 17.3647 3.9665 16.5871C3.37635 15.7567 2.89116 14.7939 2.51105 13.6961C2.10397 12.5104 1.8999 11.3622 1.8999 10.2507C1.8999 8.97735 2.17504 7.87913 2.72614 6.95883C3.15926 6.21961 3.73546 5.6365 4.45662 5.20842C5.17777 4.78035 5.95698 4.56221 6.79612 4.54825C7.25528 4.54825 7.8574 4.69028 8.60564 4.9694C9.35178 5.24947 9.83087 5.3915 10.0409 5.3915C10.198 5.3915 10.7302 5.22543 11.6324 4.89435C12.4856 4.58731 13.2057 4.46017 13.7957 4.51025C15.3942 4.63926 16.5951 5.26941 17.3938 6.40468C15.9642 7.27092 15.257 8.48418 15.271 10.0406C15.2839 11.2529 15.7237 12.2618 16.5881 13.0628C16.9798 13.4346 17.4173 13.7219 17.904 13.926C17.7984 14.2321 17.687 14.5253 17.5686 14.8068ZM13.9024 0.380106C13.9024 1.33032 13.5552 2.21754 12.8633 3.03874C12.0282 4.01498 11.0182 4.5791 9.92294 4.49008C9.90898 4.37608 9.90089 4.25611 9.90089 4.13003C9.90089 3.21782 10.298 2.24158 11.0032 1.44337C11.3553 1.03922 11.8031 0.703178 12.3461 0.43511C12.8879 0.171042 13.4004 0.0250042 13.8824 8.5004e-09C13.8965 0.127026 13.9024 0.254065 13.9024 0.380094V0.380106Z" fill="black"/>
</svg>
