<svg width="17" height="17" viewBox="0 0 17 17" fill="none" xmlns="http://www.w3.org/2000/svg">
<g clip-path="url(#clip0_43_480)">
<path d="M16.6384 8.69123C16.6384 7.98998 16.5853 7.47998 16.458 6.94873H8.48901V10.1044H13.1685C13.073 10.8906 12.5637 12.07 11.4283 12.8669L11.4177 12.9731L13.9325 14.9281L14.1023 14.9494C15.7152 13.4619 16.6384 11.2731 16.6384 8.69123Z" fill="#4285F4"/>
<path d="M8.48897 17C10.781 17 12.7016 16.2456 14.1129 14.9387L11.4389 12.8562C10.7173 13.3556 9.76231 13.7062 8.49958 13.7062C6.25001 13.7062 4.35061 12.2187 3.6715 10.1787L3.576 10.1893L0.944431 12.2187L0.912598 12.3143C2.30266 15.0875 5.16767 17 8.48897 17Z" fill="#34A853"/>
<path d="M3.66085 10.1787C3.48046 9.64744 3.37435 9.08431 3.37435 8.49994C3.37435 7.91556 3.48046 7.35244 3.65024 6.82119V6.70431L0.997449 4.64307L0.91256 4.68557C0.328946 5.83307 0 7.12932 0 8.49994C0 9.87056 0.328946 11.1668 0.901949 12.3143L3.66085 10.1787Z" fill="#FBBC05"/>
<path d="M8.48883 3.28312C10.0805 3.28312 11.1628 3.97375 11.7677 4.5475L14.1658 2.21C12.6909 0.839375 10.7808 0 8.48883 0C5.16754 0 2.30253 1.9125 0.901855 4.68562L3.65015 6.82125C4.33987 4.77062 6.23927 3.28312 8.48883 3.28312Z" fill="#EB4335"/>
</g>
<defs>
<clipPath id="clip0_43_480">
<rect width="17" height="17" fill="white"/>
</clipPath>
</defs>
</svg>
